<?xml version="1.0" encoding="UTF-8" standalone="no"?>
<svg
   xmlns:dc="http://purl.org/dc/elements/1.1/"
   xmlns:cc="http://creativecommons.org/ns#"
   xmlns:rdf="http://www.w3.org/1999/02/22-rdf-syntax-ns#"
   xmlns:svg="http://www.w3.org/2000/svg"
   xmlns="http://www.w3.org/2000/svg"
   xmlns:xlink="http://www.w3.org/1999/xlink"
   xmlns:sodipodi="http://sodipodi.sourceforge.net/DTD/sodipodi-0.dtd"
   xmlns:inkscape="http://www.inkscape.org/namespaces/inkscape"
   width="108"
   height="22"
   viewBox="0 0 108 22"
   version="1.1"
   id="svg6"
   sodipodi:docname="logo.svg"
   inkscape:version="0.92.3 (2405546, 2018-03-11)"
   style="fill:none">
  <metadata
     id="metadata12">
    <rdf:RDF>
      <cc:Work
         rdf:about="">
        <dc:format>image/svg+xml</dc:format>
        <dc:type
           rdf:resource="http://purl.org/dc/dcmitype/StillImage" />
        <dc:title />
      </cc:Work>
    </rdf:RDF>
  </metadata>
  <defs
     id="defs10">
    <linearGradient
       inkscape:collect="always"
       id="linearGradient858">
      <stop
         style="stop-color:#000000;stop-opacity:1;"
         offset="0"
         id="stop854" />
      <stop
         style="stop-color:#000000;stop-opacity:0;"
         offset="1"
         id="stop856" />
    </linearGradient>
    <linearGradient
       inkscape:collect="always"
       id="linearGradient81">
      <stop
         style="stop-color:#335eea;stop-opacity:1;"
         offset="0"
         id="stop77" />
      <stop
         style="stop-color:#335eea;stop-opacity:0;"
         offset="1"
         id="stop79" />
    </linearGradient>
    <linearGradient
       id="SVGID_1_"
       gradientUnits="userSpaceOnUse"
       x1="144.9431"
       y1="331.4823"
       x2="309.99509"
       y2="37.7019">
      <stop
         offset="0.1672"
         style="stop-color:#0063FF"
         id="stop3792" />
      <stop
         offset="0.464"
         style="stop-color:#0098FF"
         id="stop3794" />
      <stop
         offset="0.8265"
         style="stop-color:#00D4FF"
         id="stop3796" />
      <stop
         offset="1"
         style="stop-color:#00EBFF"
         id="stop3798" />
    </linearGradient>
    <linearGradient
       id="SVGID_3_"
       gradientUnits="userSpaceOnUse"
       x1="242.71999"
       y1="311.85999"
       x2="350.8494"
       y2="-10.393137"
       gradientTransform="matrix(0.10335351,0,0,0.10335351,-12.747875,-10.94505)"
       xlink:href="#linearGradient81">
      <stop
         offset="0"
         style="stop-color:#4671AB"
         id="stop3814" />
      <stop
         offset="0.4062"
         style="stop-color:#97AFD0"
         id="stop3816" />
      <stop
         offset="0.8124"
         style="stop-color:#E1E8F2"
         id="stop3818" />
      <stop
         offset="1"
         style="stop-color:#FFFFFF"
         id="stop3820" />
    </linearGradient>
    <linearGradient
       id="SVGID_4_"
       gradientUnits="userSpaceOnUse"
       x1="114.2048"
       y1="220.5916"
       x2="270.14111"
       y2="304.01971"
       gradientTransform="matrix(0.10335351,0,0,0.10335351,-12.747875,-10.94505)">
      <stop
         offset="0"
         style="stop-color:#4671AB"
         id="stop3825" />
      <stop
         offset="0.4062"
         style="stop-color:#97AFD0"
         id="stop3827" />
      <stop
         offset="0.8124"
         style="stop-color:#E1E8F2"
         id="stop3829" />
      <stop
         offset="1"
         style="stop-color:#FFFFFF"
         id="stop3831" />
    </linearGradient>
    <linearGradient
       id="SVGID_5_"
       gradientUnits="userSpaceOnUse"
       x1="112.9219"
       y1="222.9903"
       x2="268.85791"
       y2="306.41821"
       gradientTransform="matrix(0.10335351,0,0,0.10335351,-12.747875,-10.94505)">
      <stop
         offset="0"
         style="stop-color:#4671AB"
         id="stop3836" />
      <stop
         offset="0.4062"
         style="stop-color:#97AFD0"
         id="stop3838" />
      <stop
         offset="0.8124"
         style="stop-color:#E1E8F2"
         id="stop3840" />
      <stop
         offset="1"
         style="stop-color:#FFFFFF"
         id="stop3842" />
    </linearGradient>
    <linearGradient
       inkscape:collect="always"
       xlink:href="#linearGradient858"
       id="linearGradient860"
       x1="0.83274651"
       y1="13.445422"
       x2="20.742958"
       y2="0.49999946"
       gradientUnits="userSpaceOnUse" />
    <linearGradient
       inkscape:collect="always"
       xlink:href="#linearGradient858"
       id="linearGradient870"
       x1="13.475352"
       y1="4.588028"
       x2="1.4383804"
       y2="30.327465"
       gradientUnits="userSpaceOnUse" />
  </defs>
  <sodipodi:namedview
     pagecolor="#ffffff"
     bordercolor="#666666"
     borderopacity="1"
     objecttolerance="10"
     gridtolerance="10"
     guidetolerance="10"
     inkscape:pageopacity="0"
     inkscape:pageshadow="2"
     inkscape:window-width="1920"
     inkscape:window-height="986"
     id="namedview8"
     showgrid="false"
     inkscape:zoom="13.209302"
     inkscape:cx="-12.208646"
     inkscape:cy="18.573267"
     inkscape:window-x="-11"
     inkscape:window-y="-11"
     inkscape:window-maximized="1"
     inkscape:current-layer="svg6" />
  <g
     id="g879"
     inkscape:export-xdpi="1266.0918"
     inkscape:export-ydpi="1266.0918">
    <path
       inkscape:connector-curvature="0"
       style="fill:url(#linearGradient860);fill-opacity:1;stroke-width:0.10335352"
       id="path3801"
       d="m 17.492327,11 c 0,3.51402 -0.73381,6.20121 -2.201429,8.061574 -1.46762,1.860363 -3.51402,2.790544 -6.1391991,2.790544 -2.6251792,0 -4.6715785,-0.930181 -6.1391983,-2.790544 C 1.5448808,17.20121 0.81107086,14.51402 0.81107086,11 c 0,-3.5140191 0.73380994,-6.2012101 2.20142974,-8.0615733 1.4676198,-1.8603633 3.5140191,-2.79054485 6.1391983,-2.79054485 2.6251791,0 4.6715791,0.93018155 6.1391991,2.79054485 C 16.758517,4.7987899 17.492327,7.4859809 17.492327,11 Z m -6.356241,0 c 0,-3.2452999 -0.661463,-4.86795 -1.9843871,-4.86795 -1.3229249,0 -1.9843874,1.6226501 -1.9843874,4.86795 0,3.245301 0.6614625,4.86795 1.9843874,4.86795 1.3229241,0 1.9843871,-1.622649 1.9843871,-4.86795 z"
       class="st0" />
  </g>
  <path
     class="st1"
     d="m 17.492327,11 c 0,3.51402 -0.73381,6.20121 -2.201429,8.061574 -1.46762,1.860363 -3.51402,2.790544 -6.1391991,2.790544 -2.6251792,0 -4.6715785,-0.930181 -6.1391983,-2.790544 C 1.5448808,17.20121 0.81107086,14.51402 0.81107086,11 c 0,-3.5140191 0.73380994,-6.2012101 2.20142974,-8.0615733 1.4676198,-1.8603633 3.5140191,-2.79054485 6.1391983,-2.79054485 2.6251791,0 4.6715791,0.93018155 6.1391991,2.79054485 C 16.758517,4.7987899 17.492327,7.4859809 17.492327,11 Z m -6.356241,0 c 0,-3.2452999 -0.661463,-4.86795 -1.9843871,-4.86795 -1.3229249,0 -1.9843874,1.6226501 -1.9843874,4.86795 0,3.245301 0.6614625,4.86795 1.9843874,4.86795 1.3229241,0 1.9843871,-1.622649 1.9843871,-4.86795 z"
     id="path3812"
     style="fill:none;fill-opacity:1;stroke-width:0.10335352"
     inkscape:connector-curvature="0" />
  <path
     class="st2"
     d="m 15.290898,19.061574 c 2.799483,-4.481767 2.679686,-12.7820394 0,-16.1241809 C 14.482672,1.9131598 13.497714,1.1721153 12.338088,0.71115859 11.178461,1.1710817 10.193502,1.9121264 9.385278,2.9373931 8.1915448,4.4504884 7.4835732,6.5103239 7.2603298,9.1168995 7.4846069,7.1273444 8.1150633,6.13205 9.1516989,6.13205 c 1.3229241,0 1.9843871,1.6226501 1.9843871,4.86795 0,3.245301 -0.661463,4.86795 -1.9843871,4.86795 -1.0356022,0 -1.6660586,-0.995294 -1.8913691,-2.98485 0.2232434,2.606576 0.931215,4.665378 2.1249482,6.178474 0.808224,1.024233 1.793183,1.765277 2.95281,2.226234 1.158592,-0.460957 2.144584,-1.202001 2.95281,-2.226234 z"
     id="path3823"
     style="fill:url(#linearGradient870);stroke-width:0.10335352;fill-opacity:1"
     inkscape:connector-curvature="0"
     sodipodi:nodetypes="cccccssscccc" />
</svg>
